HIERARCHY
ROOT Hips
{
	OFFSET 0.000000 0.000000 0.000000
	CHANNELS 6 Xposition Yposition Zposition Xrotation Yrotation Zrotation
	JOINT Spine
	{
		OFFSET 0.000000 0.053497 0.080245
		CHANNELS 3 Xrotation Yrotation Zrotation
		JOINT Spine1
		{
			OFFSET 0.000000 0.018579 0.105368
			CHANNELS 3 Xrotation Yrotation Zrotation
			JOINT Spine2
			{
				OFFSET 0.000000 0.009325 0.106586
				CHANNELS 3 Xrotation Yrotation Zrotation
				JOINT Spine3
				{
					OFFSET 0.000000 0.000000 0.106993
					CHANNELS 3 Xrotation Yrotation Zrotation
					JOINT Neck
					{
						OFFSET 0.000000 -0.040122 0.280858
						CHANNELS 3 Xrotation Yrotation Zrotation
						JOINT Head
						{
							OFFSET 0.000000 -0.025546 0.144881
							CHANNELS 3 Xrotation Yrotation Zrotation
							End Site
							{
								OFFSET 0.000000 0.000000 0.000000
							}
						}
					}
					JOINT RightShoulder
					{
						OFFSET -0.032541 -0.054234 0.175720
						CHANNELS 3 Xrotation Yrotation Zrotation
						JOINT RightArm
						{
							OFFSET -0.161619 0.000000 0.000000
							CHANNELS 3 Xrotation Yrotation Zrotation
							JOINT RightForeArm
							{
								OFFSET -0.257104 0.000000 0.000000
								CHANNELS 3 Xrotation Yrotation Zrotation
								JOINT RightHand
								{
									OFFSET -0.273485 0.000000 0.000000
									CHANNELS 3 Xrotation Yrotation Zrotation
									JOINT RightHandEnd
									{
										OFFSET -0.070844 0.000000 0.000000
										CHANNELS 3 Xrotation Yrotation Zrotation
										End Site
										{
											OFFSET 0.000000 0.000000 0.000000
										}
									}
									JOINT RightHandThumb1
									{
										OFFSET -0.028338 -0.047230 -0.018892
										CHANNELS 3 Xrotation Yrotation Zrotation
										End Site
										{
											OFFSET 0.000000 0.000000 0.000000
										}
									}
								}
							}
						}
					}
					JOINT LeftShoulder
					{
						OFFSET 0.032541 -0.054234 0.175720
						CHANNELS 3 Xrotation Yrotation Zrotation
						JOINT LeftArm
						{
							OFFSET 0.161619 0.000000 0.000000
							CHANNELS 3 Xrotation Yrotation Zrotation
							JOINT LeftForeArm
							{
								OFFSET 0.257104 0.000000 0.000000
								CHANNELS 3 Xrotation Yrotation Zrotation
								JOINT LeftHand
								{
									OFFSET 0.273485 0.000000 0.000000
									CHANNELS 3 Xrotation Yrotation Zrotation
									JOINT LeftHandEnd
									{
										OFFSET 0.070844 0.000000 0.000000
										CHANNELS 3 Xrotation Yrotation Zrotation
										End Site
										{
											OFFSET 0.000000 0.000000 0.000000
										}
									}
									JOINT LeftHandThumb1
									{
										OFFSET 0.028338 -0.047230 -0.018892
										CHANNELS 3 Xrotation Yrotation Zrotation
										End Site
										{
											OFFSET 0.000000 0.000000 0.000000
										}
									}
								}
							}
						}
					}
				}
			}
		}
	}
	JOINT RightUpLeg
	{
		OFFSET -0.096537 0.000000 -0.028202
		CHANNELS 3 Xrotation Yrotation Zrotation
		JOINT RightLeg
		{
			OFFSET 0.000000 0.000000 -0.431842
			CHANNELS 3 Xrotation Yrotation Zrotation
			JOINT RightFoot
			{
				OFFSET 0.000000 0.000000 -0.456398
				CHANNELS 3 Xrotation Yrotation Zrotation
				JOINT RightToeBase
				{
					OFFSET 0.000000 -0.128905 -0.046918
					CHANNELS 3 Xrotation Yrotation Zrotation
					End Site
					{
						OFFSET 0.000000 0.000000 0.000000
					}
				}
			}
		}
	}
	JOINT LeftUpLeg
	{
		OFFSET 0.096537 0.000000 -0.028202
		CHANNELS 3 Xrotation Yrotation Zrotation
		JOINT LeftLeg
		{
			OFFSET 0.000000 0.000000 -0.431842
			CHANNELS 3 Xrotation Yrotation Zrotation
			JOINT LeftFoot
			{
				OFFSET 0.000000 0.000000 -0.456398
				CHANNELS 3 Xrotation Yrotation Zrotation
				JOINT LeftToeBase
				{
					OFFSET 0.000000 -0.128905 -0.046918
					CHANNELS 3 Xrotation Yrotation Zrotation
					End Site
					{
						OFFSET 0.000000 0.000000 0.000000
					}
				}
			}
		}
	}
}
MOTION
Frames: 7
Frame Time: 0.033333
0.381983 1.410299 0.842366 13.520900 -1.156900 -4.796000 21.069800 2.416400 0.011900 12.575200 1.784100 0.229700 14.288800 -3.134300 -1.036300 2.300300 -0.053500 0.094700 -13.159900 -3.731200 -1.532700 -4.370100 1.126800 2.688500 -3.110200 2.149700 22.556800 -11.877000 -40.294900 16.062200 0.000000 0.000100 75.560600 -48.966100 13.087000 -2.119400 0.000000 0.000000 0.000000 0.000000 0.000000 0.000000 -1.951600 1.362200 -33.815200 -13.723200 27.327500 -14.558300 0.000000 -0.000100 -63.044400 -49.810900 -2.889600 -3.661400 0.000000 0.000000 0.000000 0.000000 0.000000 0.000000 -56.078700 18.506600 -19.656300 47.222000 0.000000 0.000000 -4.773400 -21.206100 8.063800 -2.014600 0.000000 0.000000 -55.113400 -6.895800 12.612900 53.787700 0.000000 0.000000 -21.867600 43.966600 9.741300 5.768800 0.000000 0.000000 
0.385183 1.413855 0.845762 14.741700 -1.532400 -5.069200 21.157700 2.461000 0.011500 12.583200 1.802900 0.240900 14.542900 -3.200500 -0.829900 2.322100 -0.052800 0.141100 -12.773300 -2.896900 -1.340100 -4.677100 1.036900 2.163500 -3.243200 2.270100 22.055800 -11.918800 -40.626900 15.809300 0.000000 0.000100 75.987700 -47.263700 12.815800 -0.774100 0.000000 0.000000 0.000000 0.000000 0.000000 0.000000 -1.672400 2.425300 -33.595300 -14.060800 27.375400 -14.378400 0.000000 -0.000100 -64.112200 -47.908700 -2.977000 -4.758200 0.000000 0.000000 0.000000 0.000000 0.000000 0.000000 -56.925400 18.012300 -18.878100 45.429200 0.000000 0.000000 -3.485400 -21.446800 7.572200 -1.766400 0.000000 0.000000 -55.881400 -6.307900 12.560500 52.418600 0.000000 0.000000 -21.502400 43.256900 10.476400 5.917500 0.000000 0.000000 
0.387688 1.415595 0.850240 15.573300 -1.672900 -5.260100 21.137200 2.400700 0.020700 12.525800 1.733800 0.249000 14.679100 -3.250200 -0.743000 2.323500 -0.045100 0.155300 -12.020700 -2.215900 -1.101900 -5.145300 1.019800 1.738500 -3.286900 2.507600 21.617600 -11.677300 -41.194500 16.062100 0.000000 0.000100 76.164800 -46.507800 12.335600 0.567300 0.000000 0.000000 0.000000 0.000000 0.000000 0.000000 -1.473800 3.006900 -33.283900 -14.615700 27.774300 -14.168900 0.000000 -0.000100 -64.733500 -46.639400 -3.289000 -5.584500 0.000000 0.000000 0.000000 0.000000 0.000000 0.000000 -57.055300 17.339300 -18.208700 43.617600 0.000000 0.000000 -2.987100 -21.211900 6.972600 -2.324000 0.000000 0.000000 -56.102100 -5.804100 12.268900 50.959100 0.000000 0.000000 -21.014800 42.474500 11.291200 5.610500 0.000000 0.000000 
0.389367 1.415588 0.855716 16.028600 -1.640700 -5.355600 21.006000 2.252200 0.059400 12.408300 1.598600 0.242800 14.718700 -3.292200 -0.725400 2.314800 -0.041700 0.132000 -11.284800 -1.714700 -0.800900 -5.657900 1.085800 1.445800 -3.173400 2.773500 21.360100 -11.395800 -41.795300 16.379300 0.000000 0.000100 76.438800 -46.109800 12.141300 1.499600 0.000000 0.000000 0.000000 0.000000 0.000000 0.000000 -1.179000 3.154100 -32.920700 -15.522300 28.492400 -13.830400 0.000000 -0.000100 -65.334400 -46.059600 -4.150200 -6.573500 0.000000 0.000000 0.000000 0.000000 0.000000 0.000000 -56.475300 16.631200 -17.811600 41.728600 0.000000 0.000000 -2.747100 -20.395000 6.613000 -3.522700 0.000000 0.000000 -55.747400 -5.410500 11.825900 49.407900 0.000000 0.000000 -20.773400 42.356500 12.184300 4.461600 0.000000 0.000000 
0.390408 1.413899 0.861842 16.144900 -1.531100 -5.274800 20.786800 2.038100 0.091800 12.289300 1.440100 0.235300 14.454500 -3.399900 -0.788700 2.310900 -0.052700 0.129900 -10.578100 -1.276500 -0.534100 -6.128600 1.155200 1.245900 -2.918500 2.902300 21.175200 -11.013000 -42.233800 16.558400 0.000000 0.000100 76.720700 -45.569800 12.098200 2.361300 0.000000 0.000000 0.000000 0.000000 0.000000 0.000000 -0.753900 3.327000 -32.631300 -16.217700 29.041500 -13.474000 0.000000 -0.000100 -66.106200 -46.043300 -5.232600 -7.611800 0.000000 0.000000 0.000000 0.000000 0.000000 0.000000 -55.323100 16.065600 -17.628300 39.767500 0.000000 0.000000 -2.340800 -19.661000 6.347300 -4.580800 0.000000 0.000000 -54.855900 -4.961100 11.288400 47.729200 0.000000 0.000000 -20.653600 42.430200 12.918300 3.270900 0.000000 0.000000 
0.390990 1.410612 0.868340 15.923500 -1.391700 -5.047100 20.544500 1.814300 0.085400 12.154500 1.258500 0.214600 13.851200 -3.549500 -0.887200 2.290400 -0.073600 0.151600 -9.783400 -0.855700 -0.350600 -6.576800 1.192700 1.094400 -2.536700 2.936000 20.976200 -10.518100 -42.612800 16.658800 0.000000 0.000100 76.760600 -45.230700 11.807100 3.528300 0.000000 0.000000 0.000000 0.000000 0.000000 0.000000 -0.258300 3.639200 -32.397500 -16.392600 29.333200 -13.209900 0.000000 -0.000100 -67.010300 -45.958100 -6.156400 -8.167400 0.000000 0.000000 0.000000 0.000000 0.000000 0.000000 -53.754100 15.618400 -17.417500 37.919800 0.000000 0.000000 -2.124000 -19.633300 6.045300 -5.025900 0.000000 0.000000 -53.495300 -4.392200 10.680800 45.983500 0.000000 0.000000 -20.326100 42.048000 13.325700 3.024500 0.000000 0.000000 
0.391008 1.405867 0.875259 15.452800 -1.255700 -4.862500 20.203900 1.653800 0.028500 11.958500 1.090800 0.193600 13.174000 -3.643600 -0.924500 2.236700 -0.102300 0.187700 -9.114000 -0.539400 -0.180900 -7.009400 1.253300 0.981700 -2.088500 3.008200 20.725000 -10.061700 -43.165200 16.733600 0.000000 0.000100 76.686500 -45.043600 11.309100 4.611800 0.000000 0.000000 0.000000 0.000000 0.000000 0.000000 0.239200 3.824500 -32.062800 -16.338200 29.770800 -12.988200 0.000000 -0.000100 -68.106500 -44.734300 -7.094700 -8.374100 0.000000 0.000000 0.000000 0.000000 0.000000 0.000000 -51.905200 15.055800 -16.955700 36.181900 0.000000 0.000000 -2.334100 -19.845300 5.786200 -5.097200 0.000000 0.000000 -51.779300 -3.808700 9.973000 44.223500 0.000000 0.000000 -19.935700 41.270800 13.690400 3.302100 0.000000 0.000000 
